<svg width="20" height="20" viewBox="0 0 20 20" fill="none" xmlns="http://www.w3.org/2000/svg">
<path d="M7.59356 1.94014C7.68397 1.39768 8.15331 1.00009 8.70325 1.00009H11.2972C11.8472 1.00009 12.3165 1.39768 12.4069 1.94014L12.6204 3.22119C12.6828 3.59523 12.9327 3.9068 13.2645 4.09045C13.3387 4.13151 13.412 4.17393 13.4844 4.21766C13.8095 4.41393 14.2048 4.47495 14.5604 4.34175L15.7772 3.88587C16.2922 3.69293 16.8712 3.9006 17.1462 4.37687L18.4432 6.6233C18.7181 7.09957 18.6085 7.70482 18.1839 8.05435L17.1795 8.88117C16.887 9.12197 16.742 9.49381 16.7491 9.87262C16.7498 9.91502 16.7502 9.95751 16.7502 10.0001C16.7502 10.0427 16.7498 10.0852 16.7491 10.1275C16.742 10.5064 16.887 10.8782 17.1795 11.119L18.1839 11.9458C18.6085 12.2953 18.7181 12.9006 18.4432 13.3769L17.1462 15.6233C16.8712 16.0996 16.2922 16.3072 15.7772 16.1143L14.5604 15.6584C14.2048 15.5252 13.8095 15.5862 13.4844 15.7825C13.412 15.8263 13.3387 15.8687 13.2645 15.9097C12.9327 16.0934 12.6828 16.4049 12.6204 16.779L12.4069 18.06C12.3165 18.6025 11.8472 19.0001 11.2972 19.0001H8.70325C8.15331 19.0001 7.68397 18.6025 7.59356 18.06L7.38005 16.779C7.31771 16.4049 7.06774 16.0934 6.73597 15.9097C6.66179 15.8687 6.58847 15.8263 6.51604 15.7825C6.19101 15.5863 5.79568 15.5252 5.44011 15.6584L4.22325 16.1143C3.70826 16.3072 3.12926 16.0996 2.85429 15.6233L1.55731 13.3769C1.28234 12.9006 1.39199 12.2954 1.81657 11.9458L2.82092 11.119C3.11343 10.8782 3.25843 10.5064 3.25141 10.1276C3.25063 10.0852 3.25023 10.0427 3.25023 10.0001C3.25023 9.95751 3.25063 9.91503 3.25141 9.87263C3.25843 9.49382 3.11343 9.12198 2.82092 8.88118L1.81657 8.05437C1.39199 7.70484 1.28234 7.09958 1.55731 6.62332L2.85429 4.37688C3.12926 3.90061 3.70825 3.69295 4.22325 3.88588L5.4401 4.34176C5.79566 4.47496 6.19099 4.41394 6.51603 4.21767C6.58846 4.17393 6.66179 4.13151 6.73597 4.09045C7.06774 3.9068 7.31771 3.59523 7.38005 3.22119L7.59356 1.94014Z" stroke="#0F172A" stroke-width="1.5" stroke-linecap="round" stroke-linejoin="round"/>
<path d="M13 10C13 11.6569 11.6569 13 10 13C8.34315 13 7 11.6569 7 10C7 8.34316 8.34315 7.00001 10 7.00001C11.6569 7.00001 13 8.34316 13 10Z" stroke="#0F172A" stroke-width="1.5" stroke-linecap="round" stroke-linejoin="round"/>
</svg>
