<svg width="16" height="16" viewBox="0 0 16 16" fill="none" xmlns="http://www.w3.org/2000/svg">
<path fill-rule="evenodd" clip-rule="evenodd" d="M7.29289 0.292893C7.68342 -0.0976311 8.31658 -0.0976311 8.70711 0.292893L15.7071 7.29289C15.9931 7.57889 16.0787 8.00901 15.9239 8.38268C15.7691 8.75636 15.4045 9 15 9H14V15C14 15.5523 13.5523 16 13 16H11C10.4477 16 10 15.5523 10 15V12C10 11.4477 9.55228 11 9 11H7C6.44771 11 6 11.4477 6 12V15C6 15.5523 5.55228 16 5 16H3C2.44771 16 2 15.5523 2 15V9H0.999999C0.595536 9 0.2309 8.75636 0.0761192 8.38268C-0.0786618 8.00901 0.00689393 7.57889 0.292892 7.29289L7.29289 0.292893Z" fill="#0F172A"/>
</svg>
