<svg width="20" height="20" viewBox="0 0 20 20" fill="none" xmlns="http://www.w3.org/2000/svg">
<path d="M7 4.75002V13M13 7.00002V15.25M13.5031 18.7485L18.3781 16.311C18.7592 16.1204 19 15.7309 19 15.3047V2.82031C19 1.98401 18.1199 1.44007 17.3719 1.81408L13.5031 3.74847C13.1864 3.90683 12.8136 3.90683 12.4969 3.74847L7.50312 1.25158C7.1864 1.09322 6.8136 1.09322 6.49688 1.25158L1.62188 3.68908C1.24075 3.87965 1 4.26919 1 4.69531V17.1797C1 18.016 1.8801 18.56 2.62811 18.186L6.49688 16.2516C6.8136 16.0932 7.1864 16.0932 7.50312 16.2516L12.4969 18.7485C12.8136 18.9068 13.1864 18.9068 13.5031 18.7485Z" stroke="#0F172A" stroke-width="1.5" stroke-linecap="round" stroke-linejoin="round"/>
</svg>
