<?xml version="1.0" encoding="UTF-8"?>
<svg id="Layer_2" data-name="Layer 2" xmlns="http://www.w3.org/2000/svg" viewBox="0 0 96.84 137.45">
  <defs>
    <style>
      .cls-1 {
        fill: #fff;
      }

      .cls-2 {
        fill: #c92434;
      }

      .cls-3 {
        fill: #ed1c24;
      }

      .cls-4 {
        fill: #f19320;
      }

      .cls-5 {
        fill: #ffde17;
      }
    </style>
  </defs>
  <g id="Layer_2-2" data-name="Layer 2">
    <path class="cls-5" d="M48.97,99.35c-26.44,0-47.88,8.45-47.88,18.88s21.44,18.88,47.88,18.88,47.88-8.45,47.88-18.88-21.44-18.88-47.88-18.88Zm.07,26.97c-19.78,0-35.81-5.2-35.81-11.61s16.03-11.61,35.81-11.61,35.81,5.2,35.81,11.61-16.03,11.61-35.81,11.61Z"/>
    <path class="cls-5" d="M49.26,106.24c-11.71,0-21.2,3.74-21.2,8.36s9.49,8.36,21.2,8.36,21.2-3.74,21.2-8.36-9.49-8.36-21.2-8.36Zm.03,11.95c-8.76,0-15.86-2.3-15.86-5.14s7.1-5.14,15.86-5.14,15.86,2.3,15.86,5.14-7.1,5.14-15.86,5.14Z"/>
    <path class="cls-4" d="M2.09,120.29c0,9.48,21.08,17.16,47.08,17.16s47.08-7.68,47.08-17.16m0,0c0,6.96-25.11,15.45-46.25,15.45S2,127.24,2.09,120.29"/>
    <path class="cls-4" d="M28.32,113.34c0,5.67,9.46,10.26,21.13,10.26s21.13-4.59,21.13-10.26m0,0c0,4.16-11.27,9.23-20.76,9.23s-21.54-5.07-21.5-9.23"/>
    <g>
      <ellipse class="cls-3" cx="47.8" cy="44.18" rx="47.8" ry="44.18"/>
      <polygon class="cls-3" points="83.73 72.81 49.05 112.35 10.23 72.07 83.73 72.81"/>
    </g>
    <path class="cls-2" d="M6.01,43.88c.59,24.39,47.69,71.12,44.26,68.4C30.08,96.26,.2,68.86,.2,44.46S21.6,.28,48,.28,4.93-.61,6.01,43.88Z"/>
    <path class="cls-1" d="M13.99,36.81c.39,1.19,1.34,3.45,3.55,5.3,.93,.77,1.85,1.29,2.62,1.63-.1,.24-.22,.45-.35,.64-1.39,2.12-4.2,2.48-5.24,2.56,.21,.38,.45,.7,.7,.99,2.92,3.33,8.83,2.22,10.01,1.98,.02,.23,.02,.44,0,.64-.18,2.1-2.1,3.46-2.79,3.9,.3,.33,.62,.62,.93,.87,3.71,2.99,8.93,2.1,11,1.63,.02,.3,.02,.61,0,.93-.17,2.69-1.75,4.69-2.79,5.76,.17,.41,.39,.76,.64,1.05,3.2,3.79,8.74,.95,9.58,.62,.92-.23,4.09-2.9,4.55-3.71,1.54-2.72,2.54-4.56,3.04-6.92-.2-.12-.51-.32-.87-.58-5.17-3.63-6.27-7.78-9.43-11.47-2.97-3.47-6.48-5.03-7.74-5.59-6.79-3.02-13.75-1.43-17.41-.23Z"/>
    <path class="cls-1" d="M81.61,35.1c-.33,1.2-1.15,3.51-3.27,5.48-.89,.82-1.78,1.38-2.53,1.77,.12,.23,.25,.44,.38,.62,1.5,2.04,4.32,2.26,5.37,2.28-.19,.39-.41,.73-.65,1.03-2.74,3.47-8.7,2.68-9.9,2.5,0,.23,0,.44,.03,.64,.29,2.08,2.28,3.34,3,3.75-.29,.34-.58,.65-.88,.92-3.54,3.18-8.81,2.57-10.9,2.21,0,.3,.01,.61,.05,.93,.31,2.68,2,4.6,3.09,5.61-.15,.42-.35,.78-.58,1.08-3,3.95-8.67,1.4-9.53,1.12-.93-.18-4.24-2.68-4.74-3.47-1.68-2.64-2.78-4.42-3.4-6.75,.19-.14,.49-.35,.84-.63,4.97-3.89,5.85-8.1,8.82-11.95,2.79-3.62,6.21-5.36,7.44-5.99,6.62-3.37,13.66-2.15,17.37-1.15Z"/>
  </g>
</svg>